<svg width="26" height="26" viewBox="0 0 26 26" fill="none" xmlns="http://www.w3.org/2000/svg">
<mask id="mask0_17_2" style="mask-type:alpha" maskUnits="userSpaceOnUse" x="4" y="5" width="22" height="15">
<path d="M14.497 15.616L22.6727 6.5049C22.9508 6.195 23.2744 6.04576 23.6434 6.05718C24.0125 6.06859 24.3349 6.23078 24.6105 6.5437C24.8861 6.85664 25.0231 7.22003 25.0214 7.63386C25.0198 8.0477 24.8799 8.40999 24.6018 8.72072L16.0646 18.2658C15.8421 18.5137 15.5922 18.6993 15.3148 18.8226C15.0375 18.9459 14.7604 19.007 14.4836 19.0059C14.2067 19.0048 13.9301 18.9415 13.6538 18.816C13.3774 18.6905 13.129 18.5029 12.9085 18.2533L4.41966 8.64051C4.14405 8.32841 4.01152 7.95965 4.02207 7.53423C4.03262 7.10882 4.1773 6.74158 4.45612 6.4325C4.73494 6.12344 5.05854 5.96922 5.42694 5.96985C5.79534 5.97049 6.1177 6.12728 6.39405 6.44021L14.497 15.616Z" fill="white"/>
</mask>
<g mask="url(#mask0_17_2)">
<rect x="4.02789" y="5.96429" width="21" height="13" transform="rotate(0.227702 4.02789 5.96429)" fill="#A79883"/>
</g>
</svg>
