<svg width="50" height="50" viewBox="0 0 50 50" fill="none" xmlns="http://www.w3.org/2000/svg">
<mask id="mask0_22_10" style="mask-type:alpha" maskUnits="userSpaceOnUse" x="4" y="4" width="42" height="42">
<path d="M25 4.16667C13.5188 4.16667 4.16669 13.5187 4.16669 25C4.16669 36.4813 13.5188 45.8333 25 45.8333C36.4813 45.8333 45.8334 36.4813 45.8334 25C45.8334 13.5187 36.4813 4.16667 25 4.16667ZM25 8.33333C34.2294 8.33333 41.6667 15.7706 41.6667 25C41.6667 34.2294 34.2294 41.6667 25 41.6667C15.7706 41.6667 8.33335 34.2294 8.33335 25C8.33335 15.7706 15.7706 8.33333 25 8.33333ZM22.9167 12.5V25.8626L31.8604 34.8063L34.8063 31.8604L27.0834 24.1374V12.5H22.9167Z" fill="white"/>
</mask>
<g mask="url(#mask0_22_10)">
<rect width="50" height="50" fill="#A79883"/>
</g>
</svg>
